<svg id="Capa_1" enable-background="new 0 0 510 510" height="512" viewBox="0 0 510 510" width="512" xmlns="http://www.w3.org/2000/svg" xmlns:xlink="http://www.w3.org/1999/xlink"><linearGradient id="SVGID_1_" gradientUnits="userSpaceOnUse" x1="255" x2="255" y1="83.666" y2="330.023"><stop offset="0" stop-color="#092a40"/><stop offset="1" stop-color="#3a2f4d"/></linearGradient><linearGradient id="lg1"><stop offset="0" stop-color="#edf5ff"/><stop offset="1" stop-color="#c7e9ff"/></linearGradient><linearGradient id="SVGID_2_" gradientUnits="userSpaceOnUse" x1="31.789" x2="37.495" xlink:href="#lg1" y1="26.734" y2="32.44"/><linearGradient id="SVGID_3_" gradientUnits="userSpaceOnUse" x1="47.557" x2="53.263" xlink:href="#lg1" y1="59.512" y2="65.218"/><linearGradient id="SVGID_4_" gradientUnits="userSpaceOnUse" x1="25.733" x2="31.439" xlink:href="#lg1" y1="297.899" y2="303.605"/><linearGradient id="SVGID_5_" gradientUnits="userSpaceOnUse" x1="276.566" x2="282.272" xlink:href="#lg1" y1="17.233" y2="22.939"/><linearGradient id="SVGID_6_" gradientUnits="userSpaceOnUse" x1="130.399" x2="136.105" xlink:href="#lg1" y1="73.899" y2="79.605"/><linearGradient id="SVGID_7_" gradientUnits="userSpaceOnUse" x1="92.566" x2="98.272" xlink:href="#lg1" y1="169.233" y2="174.939"/><linearGradient id="SVGID_8_" gradientUnits="userSpaceOnUse" x1="140.566" x2="146.272" xlink:href="#lg1" y1="223.233" y2="228.939"/><linearGradient id="SVGID_9_" gradientUnits="userSpaceOnUse" x1="29.233" x2="34.939" xlink:href="#lg1" y1="186.566" y2="192.272"/><linearGradient id="SVGID_10_" gradientUnits="userSpaceOnUse" x1="97.066" x2="102.772" xlink:href="#lg1" y1="268.566" y2="274.272"/><linearGradient id="SVGID_11_" gradientUnits="userSpaceOnUse" x1="103.899" x2="109.605" xlink:href="#lg1" y1="19.899" y2="25.605"/><linearGradient id="SVGID_12_" gradientUnits="userSpaceOnUse" x1="330.532" x2="336.238" xlink:href="#lg1" y1="38.122" y2="43.828"/><linearGradient id="SVGID_13_" gradientUnits="userSpaceOnUse" x1="412.566" x2="418.272" xlink:href="#lg1" y1="240.566" y2="246.272"/><linearGradient id="SVGID_14_" gradientUnits="userSpaceOnUse" x1="470.566" x2="476.272" xlink:href="#lg1" y1="171.899" y2="177.605"/><linearGradient id="SVGID_15_" gradientUnits="userSpaceOnUse" x1="486.566" x2="492.272" xlink:href="#lg1" y1="241.733" y2="247.439"/><linearGradient id="SVGID_16_" gradientUnits="userSpaceOnUse" x1="480.566" x2="486.272" xlink:href="#lg1" y1="119.899" y2="125.605"/><linearGradient id="SVGID_17_" gradientUnits="userSpaceOnUse" x1="271.066" x2="276.772" xlink:href="#lg1" y1="265.233" y2="270.939"/><linearGradient id="SVGID_18_" gradientUnits="userSpaceOnUse" x1="305.733" x2="311.439" xlink:href="#lg1" y1="312.566" y2="318.272"/><linearGradient id="SVGID_19_" gradientUnits="userSpaceOnUse" x1="59.233" x2="64.939" xlink:href="#lg1" y1="242.566" y2="248.272"/><linearGradient id="SVGID_20_" gradientUnits="userSpaceOnUse" x1="379.233" x2="384.939" xlink:href="#lg1" y1="20.566" y2="26.272"/><linearGradient id="SVGID_21_" gradientUnits="userSpaceOnUse" x1="477.066" x2="482.772" xlink:href="#lg1" y1="23.233" y2="28.939"/><linearGradient id="SVGID_22_" gradientUnits="userSpaceOnUse" x1="460.399" x2="466.105" xlink:href="#lg1" y1="308.566" y2="314.272"/><linearGradient id="SVGID_23_" gradientUnits="userSpaceOnUse" x1="356.566" x2="362.272" xlink:href="#lg1" y1="218.566" y2="224.272"/><linearGradient id="SVGID_24_" gradientUnits="userSpaceOnUse" x1="397.899" x2="403.605" xlink:href="#lg1" y1="177.899" y2="183.605"/><linearGradient id="SVGID_25_" gradientUnits="userSpaceOnUse" x1="335.899" x2="341.605" xlink:href="#lg1" y1="271.733" y2="277.439"/><linearGradient id="SVGID_26_" gradientUnits="userSpaceOnUse" x1="219.899" x2="225.605" xlink:href="#lg1" y1="15.899" y2="21.605"/><linearGradient id="SVGID_27_" gradientUnits="userSpaceOnUse" x1="162.566" x2="168.272" xlink:href="#lg1" y1="35.233" y2="40.939"/><linearGradient id="lg2"><stop offset="0" stop-color="#fff5d9"/><stop offset="1" stop-color="#fff5d9" stop-opacity="0"/></linearGradient><linearGradient id="SVGID_28_" gradientUnits="userSpaceOnUse" x1="255" x2="255" xlink:href="#lg2" y1="-436.647" y2="432.125"/><linearGradient id="SVGID_29_" gradientUnits="userSpaceOnUse" x1="255" x2="255" xlink:href="#lg2" y1="-373.728" y2="369.858"/><linearGradient id="SVGID_30_" gradientUnits="userSpaceOnUse" x1="350.431" x2="436.883" xlink:href="#lg1" y1="80.898" y2="167.35"/><linearGradient id="SVGID_31_" gradientUnits="userSpaceOnUse" x1="436.743" x2="472.947" xlink:href="#lg1" y1="42.93" y2="79.134"/><linearGradient id="SVGID_32_" gradientUnits="userSpaceOnUse" x1="44.939" x2="103.539" xlink:href="#lg1" y1="120.564" y2="179.164"/><linearGradient id="lg3"><stop offset="0" stop-color="#fff5d9"/><stop offset="1" stop-color="#ffce47"/></linearGradient><linearGradient id="SVGID_33_" gradientUnits="userSpaceOnUse" x1="221.119" x2="355.933" xlink:href="#lg3" y1="107.644" y2="242.458"/><linearGradient id="SVGID_34_" gradientUnits="userSpaceOnUse" x1="213.281" x2="150.283" xlink:href="#lg3" y1="101.247" y2="50.425"/><linearGradient id="SVGID_35_" gradientTransform="matrix(.6 .089 .089 .6 -98.426 -129.493)" gradientUnits="userSpaceOnUse" x1="422.738" x2="359.74" xlink:href="#lg3" y1="409.794" y2="358.972"/><linearGradient id="SVGID_36_" gradientTransform="matrix(.6 .089 .089 .6 -98.426 -129.493)" gradientUnits="userSpaceOnUse" x1="504.336" x2="441.338" xlink:href="#lg3" y1="379.69" y2="328.868"/><linearGradient id="lg4"><stop offset="0" stop-color="#798c00"/><stop offset="1" stop-color="#1b444f"/></linearGradient><linearGradient id="SVGID_37_" gradientUnits="userSpaceOnUse" x1="-40.485" x2="85.889" xlink:href="#lg4" y1="380.335" y2="468.394"/><linearGradient id="lg5"><stop offset="0" stop-color="#43765a"/><stop offset="1" stop-color="#174461"/></linearGradient><linearGradient id="SVGID_38_" gradientUnits="userSpaceOnUse" x1="328.616" x2="465.746" xlink:href="#lg5" y1="433.44" y2="528.993"/><linearGradient id="lg6"><stop offset="0" stop-color="#1b444f" stop-opacity="0"/><stop offset="1" stop-color="#1b444f"/></linearGradient><linearGradient id="SVGID_39_" gradientUnits="userSpaceOnUse" x1="406.687" x2="383.514" xlink:href="#lg6" y1="521.193" y2="443.952"/><linearGradient id="SVGID_40_" gradientUnits="userSpaceOnUse" x1="331.537" x2="457.554" xlink:href="#lg5" y1="389.441" y2="477.251"/><linearGradient id="SVGID_41_" gradientUnits="userSpaceOnUse" x1="405.626" x2="399.959" xlink:href="#lg6" y1="451.2" y2="407"/><linearGradient id="SVGID_42_" gradientUnits="userSpaceOnUse" x1="364.233" x2="395.4" xlink:href="#lg5" y1="343.057" y2="396.89"/><linearGradient id="SVGID_43_" gradientUnits="userSpaceOnUse" x1="479.059" x2="503.84" xlink:href="#lg5" y1="386.821" y2="429.624"/><linearGradient id="SVGID_44_" gradientUnits="userSpaceOnUse" x1="398.444" x2="465.047" xlink:href="#lg4" y1="424.157" y2="521.442"/><linearGradient id="SVGID_45_" gradientUnits="userSpaceOnUse" x1="34.491" x2="163.83" xlink:href="#lg5" y1="419.946" y2="510.07"/><linearGradient id="SVGID_46_" gradientUnits="userSpaceOnUse" x1="106.285" x2="106.285" xlink:href="#lg6" y1="480.262" y2="413.165"/><linearGradient id="SVGID_47_" gradientUnits="userSpaceOnUse" x1="43.256" x2="149.789" xlink:href="#lg5" y1="357.448" y2="431.682"/><linearGradient id="SVGID_48_" gradientUnits="userSpaceOnUse" x1="453.659" x2="338.626" xlink:href="#lg6" y1="478.405" y2="443.271"/><linearGradient id="SVGID_49_" gradientUnits="userSpaceOnUse" x1="276.31" x2="351.202" xlink:href="#lg5" y1="469.516" y2="521.701"/><linearGradient id="SVGID_50_" gradientUnits="userSpaceOnUse" x1="308.961" x2="308.961" xlink:href="#lg6" y1="501.499" y2="473.015"/><linearGradient id="SVGID_51_" gradientUnits="userSpaceOnUse" x1="263.544" x2="370.348" xlink:href="#lg5" y1="449.552" y2="523.973"/><linearGradient id="SVGID_52_" gradientUnits="userSpaceOnUse" x1="322.725" x2="322.725" xlink:href="#lg6" y1="488.455" y2="439.85"/><linearGradient id="SVGID_53_" gradientUnits="userSpaceOnUse" x1="267.927" x2="361.266" xlink:href="#lg5" y1="399.136" y2="464.175"/><linearGradient id="SVGID_54_" gradientUnits="userSpaceOnUse" x1="361.635" x2="252.065" xlink:href="#lg6" y1="491.461" y2="451.82"/><linearGradient id="SVGID_55_" gradientUnits="userSpaceOnUse" x1="116.238" x2="290.617" xlink:href="#lg4" y1="412.646" y2="534.155"/><linearGradient id="SVGID_56_" gradientUnits="userSpaceOnUse" x1="215.515" x2="186.049" xlink:href="#lg6" y1="524.235" y2="426.012"/><linearGradient id="SVGID_57_" gradientUnits="userSpaceOnUse" x1="119.953" x2="280.2" xlink:href="#lg4" y1="356.694" y2="468.356"/><linearGradient id="SVGID_58_" gradientUnits="userSpaceOnUse" x1="210.472" x2="210.472" xlink:href="#lg6" y1="441.989" y2="351.731"/><linearGradient id="SVGID_59_" gradientUnits="userSpaceOnUse" x1="132.377" x2="264.365" xlink:href="#lg4" y1="277.026" y2="368.996"/><g><path d="m485.638 510h-461.276c-13.455 0-24.362-10.907-24.362-24.362v-461.276c0-13.455 10.907-24.362 24.362-24.362h461.275c13.456 0 24.363 10.907 24.363 24.362v461.275c0 13.456-10.907 24.363-24.362 24.363z" fill="url(#SVGID_1_)"/><g><circle cx="33.223" cy="28.168" fill="url(#SVGID_2_)" r="4.5"/><circle cx="48.991" cy="60.946" fill="url(#SVGID_3_)" r="4.5"/><circle cx="27.167" cy="299.333" fill="url(#SVGID_4_)" r="4.5"/><circle cx="278" cy="18.667" fill="url(#SVGID_5_)" r="4.5"/><circle cx="131.833" cy="75.333" fill="url(#SVGID_6_)" r="4.5"/><circle cx="94" cy="170.667" fill="url(#SVGID_7_)" r="4.5"/><circle cx="142" cy="224.667" fill="url(#SVGID_8_)" r="4.5"/><circle cx="30.667" cy="188" fill="url(#SVGID_9_)" r="4.5"/><circle cx="98.5" cy="270" fill="url(#SVGID_10_)" r="4.5"/><circle cx="105.333" cy="21.333" fill="url(#SVGID_11_)" r="4.5"/><circle cx="331.966" cy="39.556" fill="url(#SVGID_12_)" r="4.5"/><circle cx="414" cy="242" fill="url(#SVGID_13_)" r="4.5"/><circle cx="472" cy="173.333" fill="url(#SVGID_14_)" r="4.5"/><circle cx="488" cy="243.167" fill="url(#SVGID_15_)" r="4.5"/><circle cx="482" cy="121.333" fill="url(#SVGID_16_)" r="4.5"/><circle cx="272.5" cy="266.667" fill="url(#SVGID_17_)" r="4.5"/><circle cx="307.167" cy="314" fill="url(#SVGID_18_)" r="4.5"/><circle cx="60.667" cy="244" fill="url(#SVGID_19_)" r="4.5"/><circle cx="380.667" cy="22" fill="url(#SVGID_20_)" r="4.5"/><circle cx="478.5" cy="24.667" fill="url(#SVGID_21_)" r="4.5"/><circle cx="461.833" cy="310" fill="url(#SVGID_22_)" r="4.5"/><circle cx="358" cy="220" fill="url(#SVGID_23_)" r="4.5"/><circle cx="399.333" cy="179.333" fill="url(#SVGID_24_)" r="4.5"/><circle cx="337.333" cy="273.167" fill="url(#SVGID_25_)" r="4.5"/><circle cx="221.333" cy="17.333" fill="url(#SVGID_26_)" r="4.5"/><circle cx="164" cy="36.667" fill="url(#SVGID_27_)" r="4.5"/></g><path d="m56.474 141.526c0 109.643 88.883 198.526 198.526 198.526s198.526-88.883 198.526-198.526c0-55.412-22.711-105.512-59.321-141.526h-278.409c-36.611 36.014-59.322 86.114-59.322 141.526z" fill="url(#SVGID_28_)"/><path d="m105.474 141.526c0 82.581 66.945 149.526 149.526 149.526s149.526-66.945 149.526-149.526c0-65.654-42.316-121.421-101.161-141.526h-96.73c-58.844 20.104-101.161 75.871-101.161 141.526z" fill="url(#SVGID_29_)"/><g><path d="m417.606 89.311h-11.749c0-14.706-11.922-26.627-26.627-26.627h-52.52c-14.706 0-26.627 11.922-26.627 26.627s11.922 26.627 26.627 26.627h11.748c0 14.706 11.922 26.627 26.627 26.627h52.52c14.706 0 26.627-11.922 26.627-26.627.001-14.705-11.92-26.627-26.626-26.627z" fill="url(#SVGID_30_)"/><path d="m462.43 68.85h-33.178c-9.29 0-16.821-7.531-16.821-16.821 0-9.29 7.531-16.821 16.821-16.821h33.178c9.29 0 16.821 7.531 16.821 16.821 0 9.29-7.531 16.821-16.821 16.821z" fill="url(#SVGID_31_)"/></g><path d="m90.473 126.266h-7.964c0-9.968-8.081-18.049-18.049-18.049h-35.6c-9.968 0-18.049 8.081-18.049 18.049s8.081 18.049 18.049 18.049h7.963c0 9.968 8.081 18.049 18.049 18.049h35.6c9.968 0 18.049-8.081 18.049-18.049.001-9.968-8.08-18.049-18.048-18.049z" fill="url(#SVGID_32_)"/><g><circle cx="255" cy="141.526" fill="url(#SVGID_33_)" r="106.318"/><path d="m225.865 69.467c8.856 8.856 5.644 26.426-7.174 39.244s-30.388 16.03-39.244 7.174-5.644-26.426 7.174-39.244 30.388-16.031 39.244-7.174z" fill="url(#SVGID_34_)"/><path d="m196.434 136.058c6.102 6.102 5.735 16.363-.821 22.918-6.555 6.555-16.816 6.923-22.919.821s-5.734-16.363.821-22.919c6.556-6.555 16.817-6.922 22.919-.82z" fill="url(#SVGID_35_)"/><path d="m242.738 125.234c6.102 6.102 5.735 16.363-.821 22.918-6.555 6.555-16.816 6.923-22.919.821s-5.734-16.363.821-22.918 16.817-6.923 22.919-.821z" fill="url(#SVGID_36_)"/></g><g><path d="m8.218 493.828c3.997 2.649 8.791 4.192 13.946 4.192 7.079 0 13.469-2.912 18.053-7.601 4.306-4.405 10.86-5.854 16.541-3.474 3.781 1.584 8.029 2.274 12.485 1.802 11.752-1.244 21.238-10.79 22.419-22.549.676-6.734-1.303-12.984-5-17.862-.568-.748-1.14-1.493-1.655-2.278l-71.445-108.981c-3.202-4.883-8.382-7.325-13.562-7.325v155.886c0 1.982.242 3.906.689 5.751 2.636.121 5.245.926 7.529 2.439z" fill="url(#SVGID_37_)"/><g><g><path d="m487.745 509.998h-201.653l4.1-5.936 80.952-123.482c7.46-11.372 24.135-11.372 31.595 0l83.215 126.94c.552.847 1.176 1.667 1.791 2.478z" fill="url(#SVGID_38_)"/><path d="m487.754 509.998h-144.97l-34.117-34.117 62.476-95.301c7.46-11.372 24.135-11.372 31.595 0l83.215 126.94c.562.856 1.186 1.658 1.801 2.478z" fill="url(#SVGID_39_)"/><path d="m468.103 440.072-68.214-104.051c-6.114-9.325-19.783-9.325-25.896 0l-66.356 101.216-3.855 5.575c-3.262 4.57-4.978 10.316-4.358 16.488 1.128 11.226 10.185 20.341 21.405 21.529 4.255.45 8.31-.209 11.92-1.721 5.424-2.272 11.682-.889 15.793 3.317 4.377 4.477 10.478 7.257 17.237 7.257 4.922 0 9.499-1.473 13.315-4.002 4.741-3.142 10.952-3.142 15.693 0 3.817 2.529 8.393 4.002 13.315 4.002 6.759 0 12.86-2.78 17.237-7.257 4.111-4.205 10.369-5.589 15.793-3.317 3.61 1.512 7.665 2.171 11.92 1.721 11.22-1.188 20.277-10.302 21.405-21.529.646-6.429-1.244-12.397-4.774-17.053-.541-.714-1.088-1.425-1.58-2.175z" fill="url(#SVGID_40_)"/><path d="m474.459 459.299c-1.126 11.23-10.192 20.339-21.41 21.532-4.251.453-8.304-.21-11.914-1.723-5.422-2.275-11.682-.883-15.801 3.313-2.341 2.396-5.168 4.306-8.326 5.554l-86.149-86.16 43.13-65.788c6.117-9.331 19.787-9.331 25.904 0l68.206 104.048c.497.751 1.038 1.457 1.579 2.175 3.534 4.649 5.422 10.623 4.781 17.049z" fill="url(#SVGID_41_)"/><path d="m453.791 368.493-56.185-85.702c-5.035-7.681-16.294-7.681-21.33 0l-54.654 83.367-3.175 4.592c-2.687 3.764-4.1 8.497-3.59 13.581.929 9.247 8.389 16.754 17.63 17.732 3.505.371 6.845-.172 9.818-1.417 4.468-1.872 9.622-.732 13.008 2.732 3.605 3.688 8.63 5.978 14.197 5.978 4.054 0 7.824-1.213 10.967-3.296 3.905-2.588 9.02-2.588 12.925 0 3.144 2.083 6.913 3.296 10.967 3.296 5.567 0 10.592-2.29 14.197-5.978 3.386-3.464 8.541-4.604 13.008-2.732 2.973 1.246 6.314 1.788 9.818 1.417 9.242-.978 16.701-8.485 17.63-17.732.532-5.296-1.024-10.211-3.932-14.046-.444-.589-.894-1.174-1.299-1.792z" fill="url(#SVGID_42_)"/><path d="m506.906 454.338c.969-.642 2.013-1.123 3.094-1.446v-127.119c-2.851.772-5.48 2.527-7.296 5.297l-54.654 83.367-3.175 4.592c-2.687 3.764-4.1 8.497-3.59 13.581.929 9.247 8.389 16.754 17.63 17.732 3.505.371 6.845-.172 9.818-1.417 4.467-1.872 9.622-.732 13.008 2.732 3.605 3.688 8.63 5.978 14.197 5.978 4.055-.001 7.824-1.214 10.968-3.297z" fill="url(#SVGID_43_)"/></g></g><path d="m427.516 362.143-69.496 106.012-4.035 5.848c-3.423 4.783-5.213 10.801-4.567 17.261.782 7.82 5.236 14.665 11.594 18.734h124.715c13.414-.048 24.273-10.935 24.273-24.36v-39.061l-55.352-84.433c-6.403-9.77-20.729-9.77-27.132-.001z" fill="url(#SVGID_44_)"/><g><g><path d="m173.4 473.72-70.017-106.794c-6.279-9.577-20.309-9.577-26.577 0l-68.113 103.881-3.955 5.723c-2.542 3.568-4.15 7.829-4.504 12.444 1.623 11.846 11.758 20.979 24.04 21.023h146.758c4.885-4.046 8.228-9.939 8.885-16.547.669-6.596-1.269-12.716-4.896-17.499-.556-.735-1.122-1.461-1.621-2.231z" fill="url(#SVGID_45_)"/><path d="m179.917 493.453c-.657 6.607-4.001 12.489-8.897 16.547h-62.957l-27.563-27.563-47.974-47.985 44.268-67.524c6.279-9.577 20.309-9.577 26.588 0l26.418 40.301 43.588 66.493c.51.771 1.065 1.496 1.621 2.233 3.627 4.771 5.565 10.902 4.908 17.498z" fill="url(#SVGID_46_)"/><path d="m158.707 400.251-57.668-87.964c-5.168-7.884-16.724-7.884-21.892 0l-56.096 85.567-3.259 4.713c-2.757 3.863-4.209 8.721-3.684 13.939.953 9.491 8.61 17.196 18.096 18.2 3.597.381 7.025-.176 10.077-1.455 4.585-1.921 9.876-.751 13.351 2.804 3.7 3.785 8.858 6.135 14.572 6.135 4.161 0 8.03-1.245 11.257-3.383 4.008-2.656 9.258-2.656 13.266 0 3.227 2.138 7.096 3.383 11.257 3.383 5.714 0 10.872-2.35 14.572-6.135 3.475-3.555 8.766-4.725 13.351-2.804 3.052 1.279 6.48 1.836 10.077 1.455 9.485-1.004 17.142-8.709 18.096-18.2.546-5.435-1.051-10.48-4.036-14.417-.459-.603-.921-1.204-1.337-1.838z" fill="url(#SVGID_47_)"/></g></g><path d="m321.622 366.158 144.686 143.84h-144.686z" fill="url(#SVGID_48_)"/><g><g><path d="m364.143 509.998h-110.353l40.97-62.492c6.709-10.223 21.703-10.223 28.413 0z" fill="url(#SVGID_49_)"/><path d="m364.143 509.998h-110.364l40.97-62.492c6.721-10.223 21.715-10.223 28.424 0z" fill="url(#SVGID_50_)"/><path d="m386.911 509.998h-155.901c.691-2.369 1.779-4.567 3.173-6.528l3.468-5.009 59.67-91.018c5.497-8.387 17.793-8.387 23.29 0l61.336 93.568c.442.669.941 1.315 1.428 1.949 1.576 2.085 2.788 4.465 3.536 7.038z" fill="url(#SVGID_51_)"/><path d="m386.923 509.998h-85.011l-43.384-43.395 38.794-59.16c5.497-8.387 17.793-8.387 23.29 0l61.336 93.568c.442.669.929 1.303 1.417 1.949 1.586 2.085 2.798 4.465 3.558 7.038z" fill="url(#SVGID_52_)"/><path d="m369.079 436.638-50.525-77.069c-4.528-6.907-14.653-6.907-19.181 0l-49.149 74.969-2.855 4.13c-2.416 3.385-3.687 7.641-3.228 12.213.835 8.315 7.544 15.066 15.854 15.946 3.151.334 6.155-.154 8.829-1.275 4.017-1.683 8.653-.658 11.698 2.457 3.242 3.316 7.76 5.375 12.767 5.375 3.646 0 7.035-1.091 9.862-2.964 3.512-2.327 8.112-2.327 11.623 0 2.827 1.873 6.217 2.964 9.862 2.964 5.006 0 9.525-2.059 12.767-5.375 3.045-3.115 7.68-4.14 11.698-2.457 2.674 1.12 5.678 1.608 8.829 1.275 8.311-.88 15.019-7.631 15.854-15.946.478-4.762-.921-9.182-3.536-12.631-.4-.53-.805-1.057-1.169-1.612z" fill="url(#SVGID_53_)"/></g></g><path d="m386.911 509.998h-155.912c.691-2.369 1.779-4.579 3.173-6.528l3.468-5.021 20.887-31.847c-7.627-1.473-13.6-7.911-14.393-15.731-.453-4.567.816-8.829 3.23-12.206l2.856-4.137 26.058-39.748 93.509 87.665 12.161 18.553c.442.68.929 1.315 1.417 1.961 1.586 2.086 2.798 4.466 3.546 7.039z" fill="url(#SVGID_54_)"/><g><g><path d="m318.591 510h-256.428l5.213-7.548 13.124-20.015 49.3-75.208 40.517-61.801c9.486-14.461 30.691-14.461 40.177 0l105.819 161.421c.703 1.077 1.496 2.12 2.278 3.151z" fill="url(#SVGID_55_)"/><path d="m318.603 509.998h-184.348l-43.384-43.384 79.447-121.187c9.486-14.461 30.691-14.461 40.177 0l105.819 161.421c.713 1.087 1.507 2.107 2.289 3.15z" fill="url(#SVGID_56_)"/><path d="m293.615 421.078-86.744-132.314c-7.774-11.858-25.156-11.858-32.931 0l-84.38 128.709-4.902 7.09c-4.148 5.811-6.331 13.119-5.542 20.967 1.434 14.276 12.951 25.866 27.219 27.376 5.411.573 10.568-.265 15.158-2.188 6.897-2.89 14.856-1.13 20.083 4.218 5.565 5.694 13.324 9.229 21.919 9.229 6.259 0 12.079-1.873 16.932-5.089 6.029-3.995 13.926-3.995 19.955 0 4.853 3.216 10.673 5.089 16.932 5.089 8.595 0 16.353-3.535 21.919-9.229 5.227-5.348 13.186-7.107 20.083-4.218 4.59 1.923 9.747 2.761 15.158 2.188 14.268-1.51 25.785-13.101 27.219-27.376.821-8.176-1.581-15.764-6.071-21.686-.687-.908-1.382-1.812-2.007-2.766z" fill="url(#SVGID_57_)"/><path d="m301.697 445.528c-1.432 14.28-12.96 25.864-27.226 27.381-5.406.576-10.559-.267-15.151-2.191-6.894-2.892-14.856-1.123-20.093 4.212-2.977 3.047-6.571 5.476-10.587 7.063l-109.55-109.564 54.845-83.658c7.779-11.865 25.162-11.865 32.941 0l86.733 132.311c.632.955 1.32 1.853 2.008 2.766 4.494 5.911 6.895 13.508 6.08 21.68z" fill="url(#SVGID_58_)"/><path d="m275.414 330.056-71.447-108.981c-6.403-9.767-20.72-9.767-27.123 0l-69.5 106.012-4.037 5.84c-3.416 4.786-5.214 10.805-4.565 17.27 1.181 11.758 10.667 21.305 22.419 22.549 4.456.472 8.704-.218 12.485-1.802 5.681-2.38 12.236-.931 16.541 3.474 4.584 4.689 10.974 7.601 18.054 7.601 5.155 0 9.949-1.543 13.946-4.192 4.966-3.29 11.471-3.29 16.436 0 3.997 2.649 8.791 4.192 13.946 4.192 7.079 0 13.469-2.912 18.054-7.601 4.306-4.405 10.86-5.854 16.541-3.474 3.781 1.584 8.029 2.274 12.485 1.802 11.752-1.244 21.238-10.79 22.419-22.549.676-6.734-1.302-12.984-5-17.862-.566-.749-1.139-1.493-1.654-2.279z" fill="url(#SVGID_59_)"/></g></g></g></g></svg>